<svg xmlns="http://www.w3.org/2000/svg" viewBox="0 0 315.64 338.12"><defs><style>.a,.b{fill:none;stroke-miterlimit:10;stroke-width:15px;}.a{stroke:#000;}.b{stroke:#009245;stroke-linecap:round;}</style></defs><title>Asset 4</title><path class="a" d="M151.12,233.92c-11.5-30.5-54-96-59.5-127.5-3-17,25.84-23.09,36.5-16.5,11.3,7,29,54,29,54,2-12,14-19,33-5,2-19,22-19,35-9,5-15,25-17,32-7,1,1,49.89,76,51,124,1,43-56,90-97,83-24-3-40-23-56-38-30-21-73.82-28.52-69-43C106.12,212.92,160.07,257.66,151.12,233.92Z"/><line class="b" x1="141.27" y1="53.35" x2="156.98" y2="7.5"/><line class="b" x1="181.38" y1="89.85" x2="223.35" y2="65.61"/><line class="b" x1="7.5" y1="76.87" x2="53.31" y2="92.68"/><line class="b" x1="72.33" y1="8.93" x2="88.49" y2="54.62"/><line class="b" x1="10.91" y1="164.51" x2="55.91" y2="146.51"/></svg>