<svg xmlns="http://www.w3.org/2000/svg" xmlns:xlink="http://www.w3.org/1999/xlink" viewBox="0 0 155 114.35"><defs><style>.a{fill:url(#a);}.b{fill:#fff;}</style><linearGradient id="a" y1="57.17" x2="155" y2="57.17" gradientUnits="userSpaceOnUse"><stop offset="0" stop-color="#f8b9d4"/><stop offset="1" stop-color="#89cff0"/></linearGradient></defs><title>Asset 1</title><path class="a" d="M0,91c53,35,119,27,155,0L93,0C85,5,69,5,63,0Z"/><path class="b" d="M109.5,47c.42-10.64-7.23-20.53-17.4-22.51-7.29-1.42-17.65,1.33-22.53,9.23-3.72,6-3.37,13.12,1,20.48a3.05,3.05,0,0,1-.9,3.43,1.8,1.8,0,0,0-.59,1.68c.33,1.6,3,2.8,3.63,3.09,0,.08.11.22.19.39.18.39.45.94.8,1.57a15.63,15.63,0,0,1-1.26-1.66l-.07-.07c-.08-.09-2.17-2.15-4.35-2.15a5.3,5.3,0,0,0-3.77,1.64,3.82,3.82,0,0,0-.8,1.91,3.69,3.69,0,0,0-2.06-.84,4.89,4.89,0,0,0-3.2.89,11,11,0,0,0,.35-5c1.32-2.1.29-3.19-.06-3.49a2.26,2.26,0,0,0-2.54-.2,5.68,5.68,0,0,0-4.47.78,3.6,3.6,0,0,0-2,2.72c-1,3.13,0,11.77,0,12.14l.22,0a18.61,18.61,0,0,0-2.14,2.7c-1.48,2.29-1.94,2.91-5.67,5.71a14,14,0,0,1-1.49-1.3c-1.79-1.7-4.24-4-5.77-2.49a1.24,1.24,0,0,0-.41,1.14,1.35,1.35,0,0,0,.09.33,1.75,1.75,0,0,0-1.42.65c-.21.29-.56,1.08.47,2.29-.49.21-1.27.57-1.41,1.37s.4,1.73,1.69,2.94c.48.45.94.9,1.39,1.34a17.83,17.83,0,0,0,4.73,3.74,4.49,4.49,0,0,0,1.93.49,4.53,4.53,0,0,0,3-1.48,4.36,4.36,0,0,1,1.43-1l1.73-.54a35.06,35.06,0,0,0,6.6-2.48c-.38,6.66,2.36,9.88,4.78,11.41a13.58,13.58,0,0,0,7.29,1.87,28.72,28.72,0,0,0,13.9-4.14C88,89.27,95.89,80.8,95.5,70c0-3.57,2.55-4.49,2.66-4.53l.09,0c7.54-4.4,11.33-10.44,11.25-18ZM65,62.77a4.33,4.33,0,0,1,3-1.27c1.64,0,3.36,1.58,3.61,1.82.67,1,2.26,3.18,3.39,3.18.45,0,1.5,2.35,1.5,4.5,0,.31-.28.61-.71.88a2.37,2.37,0,0,0-1.07-1.41l-.5.87a1.32,1.32,0,0,1,.65,1q-.51.21-1.08.39A8.06,8.06,0,0,1,73,71.63l-.87.49a8.15,8.15,0,0,0,.61.92A14,14,0,0,1,70,73.5a1.22,1.22,0,0,1-.45-.1,5.45,5.45,0,0,1-.9-.61A8.16,8.16,0,0,1,66.5,69a1,1,0,0,0-.77-1c-.38-.16-.9-.38-1.24-2.07A3.63,3.63,0,0,1,65,62.77Zm-7.58,3.51a4.27,4.27,0,0,1,3.86-2.07,2.51,2.51,0,0,1,2.18,1.5c0,.13,0,.25,0,.39.41,2,1.16,2.51,1.83,2.79.07,0,.16.07.16.11a5.64,5.64,0,0,0,.74,2.13,1.22,1.22,0,0,0-.69.65,12.6,12.6,0,0,0-1.29,4.36c-1.59-5-3.79-7.88-6.58-8.54a7.64,7.64,0,0,0-.79-.13c.2-.42.36-.82.52-1.2Zm-7-7.12,0-.16a2.63,2.63,0,0,1,1.48-2,5.07,5.07,0,0,1,3.09-.8l-.14,1a1.09,1.09,0,0,1-.12.48l0,0a6.54,6.54,0,0,0-1,.26,1.65,1.65,0,0,0-.89.64l.86.52c.06-.11.28-.19.37-.22a5.66,5.66,0,0,1,2.12-.32l0-1h-.48c0-.09,0-.18,0-.26l.11-.85.06,0,.25-.26a1.22,1.22,0,0,1,1.47,0c.54.44.45,1.29-.24,2.32l-.1.16,0,.19c.29,2,.34,4-1.74,8.43a10,10,0,0,0-5.34,2.83C50.24,68.28,49.67,61.58,50.47,59.16Zm58-11.69c.07,7.13-3.53,12.87-10.71,17.07-.45.17-3.29,1.4-3.29,5.48C94.88,80.39,87.23,88.55,80,92.73,72.38,97.08,64.47,98,59.79,95c-3.21-2-4.7-5.84-4.29-11l-.27,0c2.47-1.58,4.13-3.91,4.27-8l-1,0c-.23,6.75-4.94,8.19-10.91,10l-1.74.53a5.2,5.2,0,0,0-1.79,1.19c-1.05.93-2,1.74-3.84.84A16.82,16.82,0,0,1,35.75,85c-.45-.45-.92-.91-1.41-1.37C33,82.38,32.93,81.8,33,81.6s.5-.48.86-.64.74-.32.79-.72a.61.61,0,0,0-.26-.59c-.62-.63-.77-1.11-.63-1.3s1.05-.4,2.06.1l.44-.9c-.37-.19-.95-.61-1-.92,0,0,0-.13.13-.28.85-.84,3,1.18,4.38,2.51C40.9,80,41.48,80.5,42,80.5h.17l.13-.1c4.05-3,4.57-3.72,6.12-6.13,2.11-3.28,5.83-6.45,9-5.7,2.81.67,6.49,4.59,8.06,19.48l1-.1c-.28-2.66-.65-5-1.08-7.2,1.89,2.63,5.92,4,12,4,1.41,0,2.94-.07,4.58-.21l-.08-1c-8.45.74-13.77-.42-15.82-3.44-1.88-2.76-.41-6.4.31-7.84l0-.09a6.19,6.19,0,0,1,.55.52,9.81,9.81,0,0,0,1.12,1,3.53,3.53,0,0,0,1,.64,6.19,6.19,0,0,0,5,.15c5.76-1.91,13.59,1,13.66,1l.36-.94c-.3-.11-6.72-2.47-12.45-1.46,1-.52,1.77-1.19,1.77-2.07a10.32,10.32,0,0,0-.43-2.74,7.55,7.55,0,0,0,2.35,1.08c2.82.72,6.08-.23,9.72-2.82,4.69.47,7.41-1.8,8.4-4.11.76-1.79.51-3.61-.61-4.53-.7-.58-2.3-1.26-5.21.71l.56.82c1.73-1.16,3.19-1.44,4-.76s.89,2,.32,3.37c-.86,2-3.29,4-7.56,3.48l-.2,0-.15.11c-3.45,2.5-6.48,3.44-9,2.78-3.49-.9-5.23-4.6-5.88-6-.25-.52-.4-.84-.69-.88C72,61,70.22,60,70,59.13a.82.82,0,0,1,.31-.78,4,4,0,0,0,1.08-4.6c-2.91-4.92-5.45-12.29-1-19.49C75.06,26.75,85,24.13,91.9,25.49c9.71,1.89,17,11.33,16.6,21.49Z"/><path class="b" d="M75.19,57.49c-.75-.43-1-1.22-.71-2.37l-1-.24C73,57,74,58,74.7,58.36a3.9,3.9,0,0,0,1.92.46,5.42,5.42,0,0,0,3.73-1.47l-.7-.7A4.24,4.24,0,0,1,75.19,57.49Z"/><path class="b" d="M90.53,62.84l.94.32a1.75,1.75,0,0,1,1-1.23,3,3,0,0,1,2.23.49l.56-.84a4,4,0,0,0-3.11-.6A2.68,2.68,0,0,0,90.53,62.84Z"/><path class="b" d="M43,84.5l0,1a.79.79,0,0,1-.16.53,1.07,1.07,0,0,1-.83.51l0,1a2.12,2.12,0,0,0,2-2A1,1,0,0,0,43,84.5Z"/><path class="b" d="M51.79,59.67a.48.48,0,0,1,.19-.11l-.07-1a1.4,1.4,0,0,0-.8.37,3.09,3.09,0,0,0-.42.52l.82.56A2.42,2.42,0,0,1,51.79,59.67Z"/></svg>