<svg xmlns="http://www.w3.org/2000/svg" viewBox="0 0 67.92 36.94"><defs><style>.a,.c,.d{fill:#fff;}.b,.c,.d{isolation:isolate;}.c,.d{font-size:19px;font-family:Ubuntu-Bold, Ubuntu;font-weight:700;}.d{letter-spacing:-0.02em;}</style></defs><title>Logo</title><path class="a" d="M67.91,6.52A5.83,5.83,0,0,0,57.23,3a5.14,5.14,0,0,0,.26,5.51.8.8,0,0,1-.24.92.47.47,0,0,0-.15.46c.08.43.79.75,1,.83v.1c0,.11.12.26.21.43a3.79,3.79,0,0,1-.34-.45h0a2,2,0,0,0-1.17-.58,1.44,1.44,0,0,0-1,.44,1.24,1.24,0,0,0-.21.52A1,1,0,0,0,55,10.9a1.31,1.31,0,0,0-.86.24,2.89,2.89,0,0,0,.1-1.34c.35-.57.07-.86,0-.94a.6.6,0,0,0-.68,0,1.51,1.51,0,0,0-1.19.2,1,1,0,0,0-.53.74,12.78,12.78,0,0,0,0,3.27h.06a5.73,5.73,0,0,0-.57.73,4.54,4.54,0,0,1-1.52,1.53,4.36,4.36,0,0,1-.4-.35c-.47-.45-1.13-1.08-1.54-.67a.4.4,0,0,0-.11.31v.09a.5.5,0,0,0-.38.17c-.06.08-.15.29.12.62-.13.06-.34.15-.37.37s.1.47.45.79L48,17a4.68,4.68,0,0,0,1.26,1,1,1,0,0,0,1.33-.27,1.22,1.22,0,0,1,.38-.26l.46-.14a8.75,8.75,0,0,0,1.75-.76,3.14,3.14,0,0,0,1.28,3.07,3.51,3.51,0,0,0,2,.5,7.55,7.55,0,0,0,3.72-1.11c2-1.17,4.13-3.45,4-6.36a1.23,1.23,0,0,1,.71-1.22h0a5.34,5.34,0,0,0,3-4.84ZM56,10.77a1.2,1.2,0,0,1,.8-.35,1.79,1.79,0,0,1,1,.49c.18.27.6.86.9.86.12,0,.41.63.41,1.21,0,.09-.08.17-.19.24a.69.69,0,0,0-.29-.38l-.13.23a.38.38,0,0,1,.17.28l-.29.1a1.61,1.61,0,0,1-.21-.3l-.23.13a2.13,2.13,0,0,0,.16.25,3,3,0,0,1-.73.12h-.12a1,1,0,0,1-.24-.17,2.15,2.15,0,0,1-.58-1,.27.27,0,0,0-.21-.27c-.1,0-.24-.11-.33-.56a1,1,0,0,1,.11-.9Zm-2,.94a1.16,1.16,0,0,1,1-.56.7.7,0,0,1,.59.41v.1c.11.55.31.68.49.75h0a1.67,1.67,0,0,0,.2.58.3.3,0,0,0-.18.17,3.23,3.23,0,0,0-.35,1.17C55.34,13,54.76,12.21,54,12h-.21l.14-.32ZM52.17,9.77h0a.73.73,0,0,1,.4-.53A1.38,1.38,0,0,1,53.39,9v.28a.28.28,0,0,1,0,.13h0l-.26.07a.46.46,0,0,0-.24.17l.23.14s.08,0,.1-.06a1.58,1.58,0,0,1,.57-.08V9.41h-.22v-.3h0L53.64,9A.32.32,0,0,1,54,9c.14.12.12.35-.06.62v.05h0A3.46,3.46,0,0,1,53.51,12a2.74,2.74,0,0,0-1.43.76A11.37,11.37,0,0,1,52.17,9.77ZM67.69,6.63a5.12,5.12,0,0,1-2.86,4.59A1.49,1.49,0,0,0,64,12.7c.1,2.79-1.94,5-3.89,6.11s-4.14,1.42-5.39.62a3,3,0,0,1-1.15-3h-.07a2.44,2.44,0,0,0,1.14-2.16h-.32c-.1,1.85-1.32,2.25-2.92,2.73l-.46.14a1.31,1.31,0,0,0-.48.32.79.79,0,0,1-1,.23,4.56,4.56,0,0,1-1.19-1l-.38-.37c-.36-.33-.38-.49-.37-.54s.13-.13.23-.18.2-.08.21-.19a.17.17,0,0,0-.07-.16c-.17-.17-.2-.3-.17-.35a.6.6,0,0,1,.55,0l.12-.24c-.1,0-.25-.17-.27-.25a.11.11,0,0,1,0-.08c.23-.22.79.32,1.17.68s.47.44.61.44h0a4.77,4.77,0,0,0,1.63-1.65c.57-.88,1.56-1.74,2.42-1.53s1.82,1.25,2.27,5.25h.27c-.08-.72-.17-1.36-.29-1.94.51.71,1.59,1.06,3.22,1.06H60.6v-.27c-2.25.2-3.68-.12-4.23-.93a2.2,2.2,0,0,1,.09-2.11h0a.67.67,0,0,1,.15.14,1.93,1.93,0,0,0,.3.27.68.68,0,0,0,.26.18,1.65,1.65,0,0,0,1.34,0,6.58,6.58,0,0,1,3.65.26l.1-.25a7.39,7.39,0,0,0-3.33-.39c.27-.14.47-.32.47-.56a3.08,3.08,0,0,0-.11-.74,1.65,1.65,0,0,0,.63.29,3.16,3.16,0,0,0,2.6-.76,2,2,0,0,0,2.24-1.1,1,1,0,0,0-.16-1.22c-.19-.16-.62-.34-1.39.19l.15.22c.46-.31.85-.39,1.07-.21a.82.82,0,0,1,.09.91,1.81,1.81,0,0,1-2,.94h0a3,3,0,0,1-2.42.74,2.71,2.71,0,0,1-1.57-1.61c-.07-.14-.11-.23-.19-.24-.3-.12-.76-.4-.81-.64a.23.23,0,0,1,.08-.2A1.09,1.09,0,0,0,57.9,8.3a5,5,0,0,1-.27-5.24,5.56,5.56,0,0,1,10,3.46Z"/><path class="a" d="M58.73,9.32c-.2-.11-.26-.33-.18-.64l-.26-.06a.76.76,0,0,0,.31.94,1,1,0,0,0,.52.12,1.43,1.43,0,0,0,1-.39l-.19-.19A1.13,1.13,0,0,1,58.73,9.32Z"/><path class="a" d="M62.84,10.76l.25.09a.47.47,0,0,1,.27-.33.9.9,0,0,1,.6.13l.15-.22a1.06,1.06,0,0,0-.83-.17A.69.69,0,0,0,62.84,10.76Z"/><path class="a" d="M50.17,16.6v.26a.33.33,0,0,1,0,.14.31.31,0,0,1-.23.14v.27a.57.57,0,0,0,.53-.54.26.26,0,0,0-.25-.27Z"/><path class="a" d="M52.48,9.91h0V9.64a.44.44,0,0,0-.22.1l-.11.14.22.15A.32.32,0,0,1,52.48,9.91Z"/><g class="b"><text class="c" transform="translate(0.26 16.08)">Ins</text><text class="d" transform="translate(26.67 16.08)">t</text><text class="c" transform="translate(34.73 16.08)">a</text></g><text class="c" transform="translate(0 32.74)">Gender</text></svg>