<svg xmlns="http://www.w3.org/2000/svg" viewBox="0 0 648.21 389.5"><defs><style>.a{fill:#ccc;}.b{fill:#515153;}.c{fill:#fff;}.d,.e,.f{fill:none;stroke-miterlimit:10;stroke-width:12px;}.d{stroke:#000;}.e{stroke:#c1272d;}.f{stroke:#009245;}</style></defs><title>Asset 1</title><rect x="346.48" y="204" width="134.91" height="98"/><path class="a" d="M440.88,206.19a47.1,47.1,0,0,1-48.08-.54L356.4,260c-.16,2.63-.12,5.28-.2,7.92.69,2.29,1.45,4.55,2.32,6.77.12.26.24.52.35.78.33.71.68,1.42,1,2.11.7,1.34,1.47,2.65,2.29,3.92.44.67.9,1.34,1.37,2l.41.54.19.24c.5.62,1,1.22,1.54,1.82a13.81,13.81,0,0,1,2.71,4.66c.08.21.16.51.25.82l.81.19c1.64.13,3.28.12,4.92.19a7.93,7.93,0,0,1,3.32-1.91,8.07,8.07,0,0,1,5.61.69c.38.12.76.25,1.15.35s1,.23,1.51.32c4.46.39,9-.2,13.38,1a22.69,22.69,0,0,1,5.67,2.35,179.28,179.28,0,0,0,21.35-1.31,187.87,187.87,0,0,0,20.85-4.38c1.5-.39,3-.8,4.48-1.26.78-.24,1.55-.5,2.31-.77l1.07-.41.26-.12a33.39,33.39,0,0,0,3.23-1.73c-.14.09,0,0,.66-.46l.11-.1c.56-.51,2.13-2.44.45-.26a8.76,8.76,0,0,1,4.4-3.38,6,6,0,0,1,2.18-.27,15.76,15.76,0,0,1,2-4.72c.26-.4.54-.79.82-1.18.16-.77.64-1.64.86-2.38a32.69,32.69,0,0,0,.84-3.65l.12-.72c.55-4.9.59-9.81,1.15-14.7Z"/><path d="M455.45,256.37c0,12.12-17,21.94-37.4,24.93-20,2.93-40.4,1.65-40.4-10.47s6.73-30.92,38.9-24.69c10.87,2.11,24.7-10.63,31.42-6C453.54,244,455.45,250.88,455.45,256.37Z"/><ellipse class="b" cx="438.07" cy="259.31" rx="9.97" ry="11.8" transform="translate(-55.05 385.71) rotate(-45)"/><ellipse class="b" cx="430.99" cy="260.26" rx="6.75" ry="10.14" transform="translate(66.61 607.7) rotate(-74.76)"/><path class="b" d="M406.58,280.06c-6.52,0-21.2-.48-21.2-6s13.95-13.18,20.43-12.5c9.74,1,20.72,3.75,20.72,9.26S413.09,280.06,406.58,280.06Z"/><path class="b" d="M396.6,261.85c-5.4-1.47-11.47-.75-9.16-5.9,1.52-3.41,5.25-1.55,10.66-.08,0,0,2.22-.11,1.24,3.49Z"/><ellipse class="b" cx="393.85" cy="262.82" rx="1.87" ry="3.5" transform="translate(2.88 529.91) rotate(-68.05)"/><path d="M461.8,120.5H365.62a34.91,34.91,0,0,0-34.91,34.91V354.59a34.91,34.91,0,0,0,34.91,34.91H461.8a34.91,34.91,0,0,0,34.91-34.91V155.41A34.91,34.91,0,0,0,461.8,120.5ZM486.21,358h-145V146h145Z"/><circle class="c" cx="413.21" cy="375" r="9"/><rect class="c" x="389.21" y="130" width="48" height="4"/><rect x="107.48" y="204" width="134.91" height="98"/><path class="a" d="M201.88,206.19a47.1,47.1,0,0,1-48.08-.54L117.4,260c-.16,2.63-.12,5.28-.2,7.92.69,2.29,1.45,4.55,2.32,6.77.12.26.24.52.35.78.33.71.68,1.42,1,2.11.7,1.34,1.47,2.65,2.29,3.92.44.67.9,1.34,1.37,2l.41.54.19.24c.5.62,1,1.22,1.54,1.82a13.81,13.81,0,0,1,2.71,4.66c.08.21.16.51.25.82l.81.19c1.64.13,3.28.12,4.92.19a7.93,7.93,0,0,1,3.32-1.91,8.07,8.07,0,0,1,5.61.69c.38.12.76.25,1.15.35s1,.23,1.51.32c4.46.39,9-.2,13.38,1a22.69,22.69,0,0,1,5.67,2.35,179.28,179.28,0,0,0,21.35-1.31,187.87,187.87,0,0,0,20.85-4.38c1.5-.39,3-.8,4.48-1.26.78-.24,1.55-.5,2.31-.77l1.07-.41.26-.12a33.39,33.39,0,0,0,3.23-1.73c-.14.09-.05,0,.66-.46l.11-.1c.56-.51,2.13-2.44.45-.26a8.76,8.76,0,0,1,4.4-3.38,6,6,0,0,1,2.18-.27,15.76,15.76,0,0,1,2-4.72c.26-.4.54-.79.82-1.18.16-.77.64-1.64.86-2.38a32.69,32.69,0,0,0,.84-3.65l.12-.72c.55-4.9.59-9.81,1.15-14.7Z"/><path d="M216.45,256.37c0,12.12-17,21.94-37.4,24.93-20,2.93-40.4,1.65-40.4-10.47s6.73-30.92,38.9-24.69c10.87,2.11,24.7-10.63,31.42-6C214.54,244,216.45,250.88,216.45,256.37Z"/><ellipse class="b" cx="199.07" cy="259.31" rx="9.97" ry="11.8" transform="translate(-125.05 216.71) rotate(-45)"/><ellipse class="b" cx="191.99" cy="260.26" rx="6.75" ry="10.14" transform="translate(-109.57 377.1) rotate(-74.76)"/><path class="b" d="M167.58,280.06c-6.52,0-21.2-.48-21.2-6s14-13.18,20.43-12.5c9.74,1,20.72,3.75,20.72,9.26S174.09,280.06,167.58,280.06Z"/><path class="b" d="M157.6,261.85c-5.4-1.47-11.47-.75-9.16-5.9,1.52-3.41,5.25-1.55,10.66-.08,0,0,2.22-.11,1.24,3.49Z"/><ellipse class="b" cx="154.85" cy="262.82" rx="1.87" ry="3.5" transform="translate(-146.8 308.22) rotate(-68.05)"/><path d="M222.8,120.5H126.62a34.91,34.91,0,0,0-34.91,34.91V354.59a34.91,34.91,0,0,0,34.91,34.91H222.8a34.91,34.91,0,0,0,34.91-34.91V155.41A34.91,34.91,0,0,0,222.8,120.5ZM247.21,358h-145V146h145Z"/><circle class="c" cx="174.21" cy="375" r="9"/><rect class="c" x="150.21" y="130" width="48" height="4"/><polyline class="d" points="177.21 96 189.21 62 141.21 89 93.21 28 84.21 99 14.21 109 62.21 149 20.21 204 69.21 196"/><path class="c" d="M175.21,220c-25.79-9.17-49.62-1.54-55.66,11.28C115,241,121.38,251.92,123.34,255"/><path class="c" d="M197.21,232c-2.25,22.07,5.31,37.51,14,39,6.61,1.13,13.14-5.94,15-8"/><path class="c" d="M139,308.24c-3.3-19.26,4.93-36.31,18.48-39.85,12.1-3.15,26.18,5,34.11,20.22"/><circle class="d" cx="566.21" cy="82" r="38"/><line class="d" x1="566.21" y1="33" x2="566.21"/><line class="d" x1="566.21" y1="164" x2="566.21" y2="131"/><line class="d" x1="615.21" y1="82" x2="648.21" y2="82"/><line class="d" x1="484.21" y1="82" x2="517.21" y2="82"/><line class="d" x1="600.86" y1="47.35" x2="624.19" y2="24.02"/><line class="d" x1="508.23" y1="139.98" x2="531.56" y2="116.65"/><line class="d" x1="600.86" y1="116.65" x2="624.19" y2="139.98"/><line class="d" x1="508.23" y1="24.02" x2="531.56" y2="47.35"/><line class="e" x1="26.21" y1="230" x2="66.21" y2="270"/><line class="e" x1="26.21" y1="270" x2="66.21" y2="230"/><line class="f" x1="552.38" y1="270.04" x2="592.38" y2="230.04"/><line class="f" x1="539.21" y1="254" x2="559.9" y2="270.41"/></svg>